<?xml version="1.0" standalone="no"?><!DOCTYPE svg PUBLIC "-//W3C//DTD SVG 1.1//EN" "http://www.w3.org/Graphics/SVG/1.1/DTD/svg11.dtd"><svg t="1494743026153" class="icon" style="" viewBox="0 0 1024 1024" version="1.1" xmlns="http://www.w3.org/2000/svg" p-id="4967" xmlns:xlink="http://www.w3.org/1999/xlink" width="200" height="200"><defs><style type="text/css"></style></defs><path d="M705.254445 537.239847 705.254445 409.420717c0-12.160971 9.924024-22.933315 21.804608-22.936385-0.002047 0-0.00307 0-0.005117 0l0.011256 0c-0.002047 0-0.004093 0-0.005117 0 11.879562 0.00307 21.1149 10.774391 21.1149 22.936385l0 113.584941c0 56.347333-16.568351 108.473527-44.656059 150.910035l-22.542412-39.044248C696.437639 606.001931 705.254445 572.699454 705.254445 537.239847z" p-id="4968" fill="#ffffff"></path><path d="M514.612501 62.761416c78.965469 0 142.732795 69.476351 142.732795 155.187455l0 310.300208c0 18.119683-2.849908 35.512818-8.091282 51.676963l-256.102842-443.582771C418.281525 92.178399 463.229227 62.761416 514.612501 62.761416z" p-id="4969" fill="#ffffff"></path><path d="M650.357138 961.676559 378.86684 961.676559 378.86684 911.615397l111.790062 0L490.656903 780.093944c-120.773667-11.524474-215.59629-122.211413-215.59629-257.089309L275.060613 409.420717c0-12.163017 10.104125-22.937408 21.986757-22.937408l5.647627 0c11.882632 0 21.274536 10.773368 21.274536 22.937408l0 127.820154c0 110.334921 85.371366 199.791325 190.642968 199.791325 19.609617 0 38.528502-3.103688 56.33403-8.868995l21.61325 37.435611c-17.163915 6.822382-35.249829 11.533684-53.992705 13.846356L538.567076 911.615397l111.790062 0L650.357138 961.676559z" p-id="4970" fill="#ffffff"></path><path d="M371.879706 528.249079 371.879706 383.368364l171.424254 296.916387c-9.266038 2.050706-18.86158 3.127224-28.692482 3.127224C435.646008 683.411975 371.879706 613.95916 371.879706 528.249079z" p-id="4971" fill="#ffffff"></path><path d="M311.349132 85.467285l473.113341 819.432307-44.255101 25.551444-473.113341-819.432307 44.255101-25.551444Z" p-id="4972" fill="#ffffff"></path></svg>