<?xml version="1.0" standalone="no"?><!DOCTYPE svg PUBLIC "-//W3C//DTD SVG 1.1//EN" "http://www.w3.org/Graphics/SVG/1.1/DTD/svg11.dtd"><svg t="1494742793701" class="icon" style="" viewBox="0 0 1043 1024" version="1.1" xmlns="http://www.w3.org/2000/svg" p-id="3010" xmlns:xlink="http://www.w3.org/1999/xlink" width="203.7109375" height="200"><defs><style type="text/css"></style></defs><path d="M173.738 64.033c-58.916 0-107.675 48.758-107.675 107.675s48.758 107.675 107.675 107.675 107.675-48.758 107.675-107.675c-2.032-60.948-48.758-107.675-107.675-107.675zM173.738 236.718c-36.569 0-67.043-30.474-67.043-67.043s30.474-67.043 67.043-67.043 67.042 30.474 67.042 67.043c-2.032 36.569-30.474 67.043-67.042 67.043z" p-id="3011" fill="#ffffff"></path><path d="M519.11 64.033c-58.916 0-107.675 48.758-107.675 107.675s48.758 107.675 107.675 107.675 107.675-48.758 107.675-107.675c-2.033-60.948-48.758-107.675-107.675-107.675zM519.11 236.718c-36.569 0-67.042-30.474-67.042-67.043s30.474-67.043 67.043-67.043 67.043 30.474 67.043 67.043c-2.033 36.569-30.474 67.043-67.043 67.043z" p-id="3012" fill="#ffffff"></path><path d="M870.578 277.349c58.916 0 107.675-48.758 107.675-107.675s-48.758-107.675-107.675-107.675-107.675 48.758-107.675 107.675c0 58.916 48.758 107.675 107.675 107.675zM870.578 104.664c36.569 0 67.043 30.474 67.043 67.043s-30.474 67.042-67.043 67.042-67.042-30.474-67.042-67.042c0-38.601 30.474-67.043 67.042-67.043z" p-id="3013" fill="#ffffff"></path><path d="M169.675 618.658c58.916 0 107.675-48.758 107.675-107.675s-48.758-107.675-107.675-107.675-107.675 48.758-107.675 107.675 48.758 107.675 107.675 107.675zM169.675 445.973c36.569 0 67.043 30.474 67.043 67.043s-30.474 67.043-67.043 67.043-67.043-30.474-67.043-67.043 32.505-67.043 67.043-67.043z" p-id="3014" fill="#ffffff"></path><path d="M515.047 618.658c58.916 0 107.675-48.758 107.675-107.675s-48.758-107.675-107.675-107.675c-58.916 0-107.675 48.758-107.675 107.675s48.758 107.675 107.675 107.675zM515.047 445.973c36.569 0 67.043 30.474 67.043 67.043s-30.474 67.043-67.043 67.043-67.043-30.474-67.043-67.043 30.474-67.043 67.043-67.043z" p-id="3015" fill="#ffffff"></path><path d="M866.515 618.658c58.916 0 107.675-48.758 107.675-107.675s-48.758-107.675-107.675-107.675-107.675 48.758-107.675 107.675c2.032 58.916 48.758 107.675 107.675 107.675zM866.515 445.973c36.569 0 67.043 30.474 67.043 67.043s-30.474 67.043-67.042 67.043-67.043-30.474-67.043-67.043 30.474-67.043 67.043-67.043z" p-id="3016" fill="#ffffff"></path><path d="M173.738 746.651c-58.916 0-107.675 48.758-107.675 107.675s48.758 107.675 107.675 107.675 107.675-48.758 107.675-107.675c-2.032-60.948-48.758-107.675-107.675-107.675zM173.738 919.336c-36.569 0-67.043-30.474-67.043-67.043s30.474-67.042 67.043-67.042 67.042 30.474 67.042 67.042c-2.032 36.569-30.474 67.043-67.042 67.043z" p-id="3017" fill="#ffffff"></path><path d="M519.11 746.651c-58.916 0-107.675 48.758-107.675 107.675s48.758 107.675 107.675 107.675c58.916 0 107.675-48.758 107.675-107.675-2.033-60.948-48.758-107.675-107.675-107.675zM519.11 919.336c-36.569 0-67.042-30.474-67.042-67.043s30.474-67.042 67.043-67.042 67.043 30.474 67.043 67.042c-2.033 36.569-30.474 67.043-67.043 67.043z" p-id="3018" fill="#ffffff"></path><path d="M868.546 746.651c-58.916 0-107.675 48.758-107.675 107.675s48.758 107.675 107.675 107.675 107.675-48.758 107.675-107.675c0-60.948-48.758-107.675-107.675-107.675zM868.546 919.336c-36.569 0-67.043-30.474-67.043-67.043s30.474-67.042 67.043-67.042 67.042 30.474 67.042 67.042c0 36.569-30.474 67.043-67.042 67.043z" p-id="3019" fill="#ffffff"></path></svg>