<?xml version="1.0" standalone="no"?><!DOCTYPE svg PUBLIC "-//W3C//DTD SVG 1.1//EN" "http://www.w3.org/Graphics/SVG/1.1/DTD/svg11.dtd"><svg t="1494743162340" class="icon" style="" viewBox="0 0 1044 1024" version="1.1" xmlns="http://www.w3.org/2000/svg" p-id="5947" xmlns:xlink="http://www.w3.org/1999/xlink" width="203.90625" height="200"><defs><style type="text/css"></style></defs><path d="M182.272 360.50944l248.77056-153.088c9.64608-5.9392 17.46944-1.4336 17.46944 9.70752v553.02144c0 11.28448-7.68 15.13472-16.85504 8.76544L182.272 606.26944H40.89856A41.0624 41.0624 0 0 1 0 565.1456v-163.49184c0-22.7328 18.35008-41.14432 40.89856-41.14432H182.272z m-141.9264 41.14432H194.56L409.6 266.24v450.56L194.56 565.4528H40.3456v-163.79904zM556.032 334.35648c-6.144-9.35936-2.78528-20.64384 7.68-25.25184 10.40384-4.58752 23.552-0.6144 29.2864 9.27744 0 0 58.44992 88.14592 58.44992 190.54592s-57.99936 184.1152-57.99936 184.1152a20.45952 20.45952 0 0 1-28.11904 6.63552c-9.50272-5.9392-11.6736-18.24768-5.48864-27.52512 0 0 50.64704-60.8256 50.64704-163.2256s-54.4768-174.57152-54.4768-174.57152zM700.08832 218.64448a19.84512 19.84512 0 0 1 4.9152-28.01664l3.97312-2.74432a19.6608 19.6608 0 0 1 27.8528 5.48864s101.74464 146.45248 101.74464 307.17952c0 160.72704-101.53984 304.3328-101.53984 304.3328-6.20544 9.5232-17.85856 10.73152-25.8048 2.94912l-5.24288-5.12c-8.04864-7.8848-8.88832-21.56544-2.19136-30.65856 0 0 93.7984-110.7968 93.7984-271.50336 0-160.72704-97.4848-281.9072-97.4848-281.9072zM843.89888 95.49824a18.69824 18.69824 0 0 1 4.15744-27.40224l3.95264-2.74432a22.56896 22.56896 0 0 1 30.06464 4.21888s151.67488 164.4544 150.3232 436.9408c-1.37216 272.46592-140.02176 415.3344-140.02176 415.3344-7.31136 8.4992-21.0944 10.38336-30.47424 4.38272l-2.60096-1.65888c-9.5232-6.08256-11.18208-18.0224-4.21888-26.64448 0 0 136.62208-147.39456 136.35584-391.41376-0.28672-244.03968-147.53792-411.01312-147.53792-411.01312z" fill="#ffffff" p-id="5948"></path></svg>