<?xml version="1.0" standalone="no"?><!DOCTYPE svg PUBLIC "-//W3C//DTD SVG 1.1//EN" "http://www.w3.org/Graphics/SVG/1.1/DTD/svg11.dtd"><svg t="1494743267746" class="icon" style="" viewBox="0 0 1024 1024" version="1.1" xmlns="http://www.w3.org/2000/svg" p-id="6675" xmlns:xlink="http://www.w3.org/1999/xlink" width="200" height="200"><defs><style type="text/css"></style></defs><path d="M512 85.344q17.664 0 30.176 12.512t12.512 30.176l0 341.344 341.344 0q17.664 0 30.176 12.512t12.512 30.176-12.512 30.176-30.176 12.512l-341.344 0 0 341.344q0 17.664-12.512 30.176t-30.176 12.512-30.176-12.512-12.512-30.176l0-341.344-341.344 0q-17.664 0-30.176-12.512t-12.512-30.176 12.512-30.176 30.176-12.512l341.344 0 0-341.344q0-17.664 12.512-30.176t30.176-12.512z" p-id="6676" fill="#ffffff"></path></svg>