<?xml version="1.0" standalone="no"?><!DOCTYPE svg PUBLIC "-//W3C//DTD SVG 1.1//EN" "http://www.w3.org/Graphics/SVG/1.1/DTD/svg11.dtd"><svg t="1494743461289" class="icon" style="" viewBox="0 0 1024 1024" version="1.1" xmlns="http://www.w3.org/2000/svg" p-id="11215" xmlns:xlink="http://www.w3.org/1999/xlink" width="200" height="200"><defs><style type="text/css"></style></defs><path d="M383.8176 853.332267c-84.618667 0-169.2384 0.0032-253.857067-0.001067-49.304533-0.0032-87.290667-37.957333-87.291733-87.218133-0.002133-169.415467-0.002133-338.830933 0-508.245333 0.001067-49.248 37.998933-87.197867 87.309867-87.198933 169.5936-0.002133 339.1872-0.002133 508.7808 0 49.300267 0.001067 87.290667 37.959467 87.290667 87.218133 0.002133 169.415467 0.0032 338.830933-0.001067 508.2464-0.001067 49.252267-37.998933 87.1968-87.309867 87.198933C553.7664 853.3344 468.791467 853.332267 383.8176 853.332267zM87.376 764.9984c0.001067 25.867733 17.858133 43.672533 43.800533 43.672533 168.682667 0.002133 337.3664 0.002133 506.049067 0 26.362667 0 44.116267-17.661867 44.117333-43.890133 0.002133-168.5056 0.001067-337.0112 0-505.5168 0-26.263467-17.726933-43.936-44.068267-43.936-168.682667-0.001067-337.365333-0.002133-506.049067 0-25.994667 0-43.848533 17.757867-43.8496 43.620267C87.3728 343.1136 87.3728 680.48 87.376 764.9984z" p-id="11216" fill="#ffffff"></path><path d="M981.333333 238.2304c0 182.7616 0 364.858667 0 547.636267-1.901867-1.0752-142.174933-88.493867-210.893867-131.277867-2.885333-1.796267-4.032-3.623467-4.027733-7.115733 0.112-90.363733 0.107733-180.7264 0.0128-271.090133-0.0032-3.2224 0.936533-5.070933 3.68-6.778667C839.1232 326.6336 979.706667 239.1072 981.333333 238.2304zM936.472533 705.36c0-129.274667 0-257.616 0-386.4544-1.2192 0.644267-82.330667 51.188267-122.231467 75.914667-2.8576 1.770667-3.058133 3.838933-3.057067 6.5856 0.030933 73.710933 0.0512 147.421867-0.0576 221.131733-0.005333 3.447467 1.035733 5.3632 3.968 7.175467C843.419733 647.226667 923.870933 697.493333 936.472533 705.36z" p-id="11217" fill="#ffffff"></path></svg>