<?xml version="1.0" standalone="no"?><!DOCTYPE svg PUBLIC "-//W3C//DTD SVG 1.1//EN" "http://www.w3.org/Graphics/SVG/1.1/DTD/svg11.dtd"><svg t="1494743827091" class="icon" style="" viewBox="0 0 1024 1024" version="1.1" xmlns="http://www.w3.org/2000/svg" p-id="22592" xmlns:xlink="http://www.w3.org/1999/xlink" width="200" height="200"><defs><style type="text/css"></style></defs><path d="M894.131187 473.595318c-18.960841-99.67207-182.790116-177.572278-382.13221-177.572278-212.076116 0-383.997698 88.164992-383.997698 196.921975 0 5.735631 0.538259 11.183713 1.476631 16.440437l0 84.748173c0 14.420431 10.552334 24.055882 23.517623 21.436218l140.667763-28.417213c13.887288-2.804882 25.554002-17.437138 25.848715-32.541137l1.486864-76.029604c0.487094-24.918529 16.413831-47.115064 40.10951-54.841026 37.928844-12.367679 90.752934-20.051685 149.295258-20.051685 61.098543 0 116.053156 8.354272 154.305365 21.673625 23.425525 8.156774 39.311331 29.937846 39.796378 54.738695l1.457188 74.508971c0.295735 15.103999 11.961426 29.736255 25.848715 32.541137l140.667763 28.417213c12.96529 2.619664 23.517623-7.015787 23.517623-21.436218L895.996674 484.430084C895.997698 480.753345 895.329479 477.084793 894.131187 473.595318z" p-id="22593" fill="#ffffff"></path></svg>